<?xml version="1.0" standalone="no"?>
<!DOCTYPE svg PUBLIC "-//W3C//DTD SVG 20010904//EN"
 "http://www.w3.org/TR/2001/REC-SVG-20010904/DTD/svg10.dtd">
<svg version="1.0" xmlns="http://www.w3.org/2000/svg"
 width="2340.000000pt" height="2340.000000pt" viewBox="0 0 2340.000000 2340.000000"
 preserveAspectRatio="xMidYMid meet">
<metadata>
Created by potrace 1.11, written by Peter Selinger 2001-2013
</metadata>
<g transform="translate(0.000000,2340.000000) scale(0.100000,-0.100000)"
fill="#000000" stroke="none">
<path d="M11549 23396 c-2 -2 -27 -7 -55 -10 -142 -15 -332 -80 -464 -159
-260 -155 -479 -433 -586 -742 -15 -44 -28 -81 -28 -82 -1 -1 -15 -4 -31 -7
-93 -17 -181 -41 -232 -62 -17 -8 -36 -14 -43 -14 -15 0 -251 -118 -271 -136
-8 -8 -19 -14 -22 -14 -7 0 -90 -58 -131 -90 -153 -122 -265 -246 -342 -381
l-46 -79 -81 -1 c-45 -1 -97 -2 -115 -4 -187 -16 -218 -19 -297 -30 -19 -3
-52 -7 -72 -10 -68 -9 -286 -56 -378 -82 -49 -14 -98 -26 -108 -28 -9 -2 -22
-7 -27 -10 -5 -3 -18 -8 -27 -10 -109 -20 -485 -183 -713 -306 -133 -73 -422
-265 -545 -364 -276 -222 -548 -486 -735 -715 -25 -30 -50 -59 -56 -65 -15
-14 -137 -173 -215 -280 -531 -729 -961 -1693 -1244 -2787 -31 -117 -57 -222
-59 -233 -2 -11 -9 -38 -15 -60 -6 -22 -20 -85 -31 -140 -12 -55 -30 -143 -41
-195 -11 -52 -22 -111 -25 -130 -2 -19 -7 -42 -9 -50 -2 -8 -7 -31 -10 -50 -3
-19 -15 -84 -25 -145 -11 -60 -22 -128 -25 -150 -3 -23 -7 -52 -10 -65 -2 -13
-9 -60 -15 -104 -6 -45 -13 -92 -15 -106 -2 -14 -7 -47 -10 -75 -4 -27 -8 -61
-10 -75 -2 -14 -7 -52 -10 -85 -4 -33 -9 -73 -11 -90 -2 -16 -7 -55 -9 -85 -3
-30 -7 -71 -10 -90 -2 -19 -6 -64 -10 -100 -3 -36 -8 -83 -10 -105 -2 -22 -7
-78 -10 -125 -3 -47 -7 -98 -10 -115 -2 -16 -6 -82 -10 -145 -3 -63 -8 -146
-10 -185 -16 -262 -19 -444 -20 -930 0 -494 6 -796 19 -1000 3 -38 8 -122 11
-185 3 -63 7 -135 9 -160 3 -25 7 -81 11 -125 10 -140 16 -209 20 -240 2 -16
6 -66 10 -110 3 -44 8 -96 10 -115 3 -19 7 -56 10 -82 13 -124 17 -162 30
-268 3 -19 7 -57 10 -85 3 -27 8 -61 10 -75 2 -14 7 -50 10 -80 3 -30 8 -66
10 -80 2 -14 7 -45 10 -70 3 -25 10 -70 15 -100 5 -30 12 -79 15 -109 3 -30 8
-57 10 -61 2 -4 7 -31 10 -61 3 -30 8 -61 10 -69 2 -8 7 -33 10 -55 3 -23 8
-52 10 -65 3 -14 17 -92 31 -175 15 -82 30 -168 34 -190 39 -202 105 -524 136
-660 14 -60 28 -121 30 -135 3 -14 14 -61 26 -105 11 -44 22 -90 24 -103 5
-26 85 -335 114 -442 11 -41 23 -84 25 -95 3 -12 32 -115 65 -230 262 -903
597 -1792 961 -2550 29 -60 53 -112 54 -115 1 -7 119 -239 184 -363 118 -227
309 -564 421 -747 29 -47 64 -105 79 -129 32 -54 362 -552 379 -572 7 -8 29
-37 49 -66 87 -121 161 -220 203 -274 25 -32 55 -70 67 -86 12 -15 30 -38 40
-50 10 -12 29 -36 43 -54 27 -35 240 -291 249 -299 4 -3 24 -25 45 -50 209
-240 496 -526 801 -799 109 -98 385 -319 475 -381 19 -13 37 -27 40 -30 5 -6
95 -69 230 -161 341 -233 772 -463 1172 -625 132 -53 457 -168 508 -179 8 -2
62 -17 120 -33 58 -17 132 -37 164 -44 63 -14 58 -10 150 -133 99 -133 203
-225 255 -225 61 0 168 100 285 263 26 37 56 71 65 76 9 5 52 18 96 29 316 80
698 213 985 344 108 50 356 175 415 209 28 16 59 33 70 38 74 33 466 283 655
418 423 302 956 789 1319 1203 41 47 77 87 80 90 45 38 389 473 571 720 100
136 307 442 409 604 113 181 351 580 351 590 0 2 23 43 51 92 28 49 90 163
136 254 47 91 90 171 95 178 6 6 8 12 5 12 -3 0 10 27 29 61 18 33 34 62 34
64 0 2 36 79 80 171 44 91 80 168 80 169 0 2 17 41 39 87 21 45 60 133 86 193
26 61 55 128 65 150 25 56 182 438 185 450 1 6 7 21 12 35 6 14 29 77 52 140
24 63 47 126 53 140 13 32 33 86 108 300 115 329 284 883 375 1225 43 160 143
557 149 590 3 17 21 99 40 183 31 135 56 252 71 332 3 14 16 79 30 145 13 66
27 134 30 150 5 28 8 47 20 105 2 14 7 41 10 60 3 19 10 58 15 85 5 28 12 64
14 80 10 59 26 160 30 185 6 37 27 171 31 200 5 39 17 113 21 135 2 11 7 45 9
75 3 30 8 62 10 70 2 8 7 40 10 70 3 30 8 66 10 80 6 35 19 144 30 245 3 28 8
66 11 85 2 19 6 62 9 95 3 33 7 76 10 95 2 19 7 62 10 95 3 33 8 87 10 120 3
33 8 80 10 105 2 25 7 88 11 140 3 52 8 111 9 130 2 19 7 87 10 150 4 63 8
142 11 175 26 404 26 1570 0 1940 -2 28 -7 104 -11 170 -4 66 -8 136 -10 155
-2 19 -6 78 -10 130 -11 137 -20 240 -30 320 -2 19 -7 64 -10 100 -3 36 -7 76
-9 90 -3 14 -8 52 -11 85 -4 33 -8 69 -10 80 -1 11 -6 45 -9 75 -4 30 -8 66
-11 80 -2 14 -7 45 -10 70 -3 25 -8 58 -11 73 -3 16 -7 38 -8 50 -2 12 -6 42
-10 67 -4 25 -10 59 -12 75 -46 296 -135 717 -228 1085 -2 8 -11 44 -20 80
-10 36 -24 86 -32 111 -8 25 -17 54 -19 65 -27 113 -179 578 -248 759 -128
333 -202 505 -332 770 -90 185 -229 442 -285 530 -11 17 -27 44 -36 60 -41 74
-251 385 -316 470 -360 465 -658 770 -1008 1033 -52 39 -100 76 -107 82 -24
20 -271 178 -348 222 -161 92 -413 215 -467 227 -4 1 -31 12 -60 25 -100 44
-425 144 -528 162 -14 3 -41 9 -60 14 -19 5 -51 12 -70 15 -19 3 -42 8 -50 10
-8 2 -35 6 -60 9 -25 3 -55 8 -67 10 -12 3 -53 8 -90 11 -37 4 -78 8 -91 10
-13 2 -90 7 -170 11 -81 3 -150 9 -153 13 -3 3 -17 26 -30 51 -13 25 -26 47
-29 50 -3 3 -23 31 -45 64 -53 79 -195 221 -296 296 -202 150 -418 251 -635
296 l-80 17 -29 83 c-96 284 -305 561 -535 710 -120 77 -290 149 -400 170 -14
2 -38 7 -55 11 -16 3 -39 8 -50 10 -28 5 -362 13 -366 9z"/>
</g>
</svg>
